<svg id="Layer_1" data-name="Layer 1" xmlns="http://www.w3.org/2000/svg" viewBox="0 0 408.64 273.25"><defs><style>.cls-1{opacity:0.5;}.cls-2{fill:none;stroke:#000;stroke-miterlimit:10;}.cls-3{fill:#fff;}</style></defs><g class="cls-1"><path class="cls-2" d="M131.64,190.14q-28.5,0-44.37-13.51T71.4,136.55q0-26.43,15.87-39.94T131.64,83.1h19.19q28.63,0,44.44,13.51t15.8,39.94q0,26.58-15.8,40.08t-44.44,13.51ZM95.46,136.55q0,16.09,7.83,24.51l57.88-57.73a62.94,62.94,0,0,0-12-1h-16q-18.6,0-28.2,8.12T95.46,136.55Zm37.8,34.4h16q18.6,0,28.2-8.19T187,136.55q0-16.1-8-24.51l-58,57.88A66.07,66.07,0,0,0,133.26,171Z"/><path class="cls-2" d="M221.4,189.41v-31.3q0-14.78,8.27-22.89t24.06-8.12h48.58q14,0,14-12t-14-12H223.76V84h83.13q15.35,0,23.84,8.27t8.49,22.88q0,14.62-8.49,22.89t-23.84,8.27H257q-6.35,0-9.52,3.17t-3.17,8.93v12h92.12v19Z"/></g><path class="cls-3" d="M8.9,127.72l8-17.88h6.17l8.05,17.88H26.82l-1.7-3.78H15l-1.7,3.78Zm7.5-7h7.27L20.2,113h-.33Z"/><path class="cls-3" d="M33.17,127.72V109.84h3.35l8.28,5.8h.12l8.28-5.8h3.35v17.88h-4V114.84l-5.68,3.8v9.08h-4v-9.08l-5.7-3.8v12.88Z"/><path class="cls-3" d="M58.55,127.72l8-17.88h6.17l8,17.88H76.47l-1.7-3.78H64.6l-1.7,3.78Zm7.5-7h7.27L69.85,113h-.33Z"/><path class="cls-3" d="M81.82,127.72v-3l13.43-11.55H82.4v-3.25h18.65v3L87.6,124.47H101v3.25Z"/><path class="cls-3" d="M103.55,127.72V109.84h4v17.88Z"/><path class="cls-3" d="M111.05,127.72V109.84h4l12.65,12.85V109.84h4v17.88h-4l-12.65-12.88v12.88Z"/><path class="cls-3" d="M144,127.84a10.33,10.33,0,0,1-7.14-2.29q-2.56-2.28-2.56-6.78c0-3,.87-5.24,2.61-6.76s4.27-2.29,7.59-2.29H154V113h-9.23a7.24,7.24,0,0,0-4.84,1.37,5.62,5.62,0,0,0-1.56,4.43,5.07,5.07,0,0,0,5.4,5.8v-6.95h11.2v10.22Zm3.52-3.25h3.45v-3.72h-3.45Z"/><path class="cls-3" d="M167.17,127.72V109.84h19.6v3.25h-15.6v4h14.15v3.25H171.17v4.18h15.6v3.25Z"/><path class="cls-3" d="M188,127.72l6.7-8.93-6.7-9h4.88l5.37,7.33h2.3l5.38-7.33h4.87l-6.7,9,6.7,8.93h-4.9l-5.35-7.3h-2.3l-5.35,7.3Z"/><path class="cls-3" d="M212.82,127.72V109.84h15a6.19,6.19,0,0,1,4.31,1.4,6.63,6.63,0,0,1,0,8.5,6.14,6.14,0,0,1-4.31,1.4h-11v6.58Zm14.5-14.63h-10.5v4.78l10.5,0a2.37,2.37,0,0,0,1.69-.55,3.21,3.21,0,0,0,0-3.71A2.42,2.42,0,0,0,227.32,113.09Z"/><path class="cls-3" d="M236.15,127.72V109.84h19.6v3.25h-15.6v4H254.3v3.25H240.15v4.18h15.6v3.25Z"/><path class="cls-3" d="M258.5,127.72V109.84h15a6.18,6.18,0,0,1,4.31,1.4,5.46,5.46,0,0,1,1.54,4.25,5.82,5.82,0,0,1-1.12,3.8A5,5,0,0,1,275,121l4.12,6.7h-4.55l-3.82-6.58H262.5v6.58ZM273,113.09H262.5v4.78l10.5,0a2.35,2.35,0,0,0,1.68-.55,3.21,3.21,0,0,0,0-3.71A2.39,2.39,0,0,0,273,113.09Z"/><path class="cls-3" d="M282.32,127.72V109.84h4v17.88Z"/><path class="cls-3" d="M289.82,127.72V109.84h19.6v3.25h-15.6v4H308v3.25H293.82v4.18h15.6v3.25Z"/><path class="cls-3" d="M312.17,127.72V109.84h4.05l12.65,12.85V109.84h4v17.88h-4.05l-12.65-12.88v12.88Z"/><path class="cls-3" d="M345.57,127.84q-4.95,0-7.58-2.29t-2.62-6.78q0-4.47,2.62-6.78t7.58-2.27l9,0V113h-8.73a7.22,7.22,0,0,0-4.82,1.37,7,7,0,0,0,0,8.87,7.17,7.17,0,0,0,4.82,1.38h9v3.25Z"/><path class="cls-3" d="M357.32,127.72V109.84h19.6v3.25h-15.6v4h14.15v3.25H361.32v4.18h15.6v3.25Z"/><path class="cls-3" d="M379.09,127.84v-3.25l14.38,0a2.51,2.51,0,0,0,1.69-.51,2.13,2.13,0,0,0,.58-1.67,2.1,2.1,0,0,0-.58-1.66,2.51,2.51,0,0,0-1.69-.51h-9a6.36,6.36,0,0,1-4.31-1.34,5.81,5.81,0,0,1,0-7.88,6.35,6.35,0,0,1,4.31-1.33h14.05V113l-13.63,0a2.62,2.62,0,0,0-1.67.49,1.91,1.91,0,0,0-.6,1.56,1.88,1.88,0,0,0,.6,1.56,2.56,2.56,0,0,0,1.67.49h8.95a6.31,6.31,0,0,1,4.32,1.37,6.07,6.07,0,0,1,0,8.06,6.31,6.31,0,0,1-4.32,1.37Z"/></svg>