<svg id="Layer_1" data-name="Layer 1" xmlns="http://www.w3.org/2000/svg" viewBox="0 0 408.64 273.25"><defs><style>.cls-1{opacity:0.5;}.cls-2{fill:none;stroke:#000;stroke-miterlimit:10;}.cls-3{fill:#fff;}</style></defs><g class="cls-1"><path class="cls-2" d="M166.16,190.14q-28.5,0-44.37-13.5t-15.87-40.09q0-26.43,15.87-39.94T166.16,83.1h19.19q28.64,0,44.44,13.51t15.8,39.94q0,26.58-15.8,40.09t-44.44,13.5ZM130,136.55q0,16.09,7.82,24.51l57.88-57.73a62.94,62.94,0,0,0-12-1H167.78q-18.6,0-28.2,8.12T130,136.55ZM167.78,171h15.95q18.6,0,28.2-8.19t9.59-26.21q0-16.1-8-24.51l-58,57.88A66.07,66.07,0,0,0,167.78,171Z"/><path class="cls-2" d="M279.84,189.41V103.33h-31.3V84.14h54.18V189.41Z"/></g><path class="cls-3" d="M123.17,127.72V109.84h4v14.63h13.08v3.25Z"/><path class="cls-3" d="M151,127.84q-4.77,0-7.4-2.28T141,118.77c0-3,.87-5.24,2.62-6.76s4.28-2.29,7.58-2.29h4.5q5,0,7.57,2.29c1.75,1.52,2.63,3.78,2.63,6.76s-.88,5.26-2.63,6.79-4.23,2.28-7.45,2.28Zm.45-14.87a7.89,7.89,0,0,0-4.32,1,4.49,4.49,0,0,0-2,3.17h16.5a4.56,4.56,0,0,0-1.95-3.17,8,8,0,0,0-4.33-1Zm.08,11.62h3.87a7.9,7.9,0,0,0,4.34-1,4.55,4.55,0,0,0,1.94-3.2H145.2a4.5,4.5,0,0,0,2,3.2A8.08,8.08,0,0,0,151.55,124.59Z"/><path class="cls-3" d="M169.65,127.72l-2-17.88h4l1.47,13,5-3.82v-9.23h4v9.25l4.92,3.8,1.5-13h4l-2,17.88h-3.35L180.1,122l-7.1,5.73Z"/><path class="cls-3" d="M204.27,127.72V109.84h19.1v3.25h-15.1v5h13.15v3.25H208.27v6.43Z"/><path class="cls-3" d="M226.12,127.72V109.84h19.6v3.25h-15.6v4h14.15v3.25H230.12v4.18h15.6v3.25Z"/><path class="cls-3" d="M248.47,127.72V109.84h19.6v3.25h-15.6v4h14.15v3.25H252.47v4.18h15.6v3.25Z"/><path class="cls-3" d="M270.25,127.84v-3.25l14.37,0a2.49,2.49,0,0,0,1.69-.51,2.13,2.13,0,0,0,.59-1.67,2.11,2.11,0,0,0-.59-1.66,2.49,2.49,0,0,0-1.69-.51h-8.95a6.37,6.37,0,0,1-4.31-1.34,5.8,5.8,0,0,1,0-7.87,6.32,6.32,0,0,1,4.31-1.34h14.05V113l-13.62,0a2.63,2.63,0,0,0-1.68.49,2.34,2.34,0,0,0,0,3.13,2.62,2.62,0,0,0,1.68.48h8.95a6.26,6.26,0,0,1,4.31,1.37,6,6,0,0,1,0,8.06,6.21,6.21,0,0,1-4.31,1.37Z"/></svg>