<svg id="Layer_1" data-name="Layer 1" xmlns="http://www.w3.org/2000/svg" viewBox="0 0 408.64 273.25"><defs><style>.cls-1{opacity:0.5;}.cls-2{fill:none;stroke:#000;stroke-miterlimit:10;}.cls-3{fill:#fff;}</style></defs><g class="cls-1"><path class="cls-2" d="M119.76,190.14q-28.5,0-44.37-13.51T59.52,136.55q0-26.43,15.87-39.94T119.76,83.1H139q28.65,0,44.44,13.51t15.8,39.94q0,26.58-15.8,40.08T139,190.14ZM83.59,136.55q0,16.09,7.82,24.51l57.88-57.73a62.94,62.94,0,0,0-12-1h-16q-18.6,0-28.2,8.12T83.59,136.55ZM121.38,171h16q18.6,0,28.2-8.19t9.59-26.21q0-16.1-8-24.51l-58,57.88A66.07,66.07,0,0,0,121.38,171Z"/><path class="cls-2" d="M209.52,189.41v-19.2h81.2c3.74,0,6.55-1.05,8.42-3.17s2.81-5,2.81-8.79-.94-6.84-2.81-9-4.68-3.25-8.42-3.25H223.4V127h67.18Q302,127,302,115q0-11.8-11.37-11.81H209.52V84H295q15.35,0,23.84,7.6t8.49,21.19a35.16,35.16,0,0,1-2.81,14,18.38,18.38,0,0,1-9.3,9.67,19.23,19.23,0,0,1,9.3,9.53,33.41,33.41,0,0,1,2.81,13.8q0,13.44-8.49,21.56T295,189.41Z"/></g><path class="cls-3" d="M13.42,127.72l8-17.88h6.18l8.05,17.88H31.35l-1.7-3.78H19.47l-1.7,3.78Zm7.5-7H28.2L24.72,113H24.4Z"/><path class="cls-3" d="M38.2,127.72l-2-17.88h4l1.47,13,5-3.82v-9.23h4v9.25l4.92,3.8,1.5-13h4l-2,17.88H55.72L48.65,122l-7.1,5.73Z"/><path class="cls-3" d="M64.07,127.72V109.84h19.6v3.25H68.07v4H82.22v3.25H68.07v4.18h15.6v3.25Z"/><path class="cls-3" d="M85.85,127.84v-3.25l14.37,0a2.51,2.51,0,0,0,1.69-.51,2.13,2.13,0,0,0,.59-1.67,2.11,2.11,0,0,0-.59-1.66,2.51,2.51,0,0,0-1.69-.51h-9A6.36,6.36,0,0,1,87,118.93a5.81,5.81,0,0,1,0-7.88,6.35,6.35,0,0,1,4.31-1.33h14V113l-13.62,0a2.63,2.63,0,0,0-1.68.49,1.91,1.91,0,0,0-.6,1.56,1.88,1.88,0,0,0,.6,1.56,2.57,2.57,0,0,0,1.68.49h9a6.28,6.28,0,0,1,4.31,1.37,6,6,0,0,1,0,8.06,6.28,6.28,0,0,1-4.31,1.37Z"/><path class="cls-3" d="M118,127.84q-4.77,0-7.4-2.29T108,118.77c0-3,.87-5.24,2.62-6.76s4.28-2.29,7.58-2.29h4.5q5,0,7.57,2.29c1.75,1.52,2.63,3.78,2.63,6.76s-.88,5.26-2.63,6.78-4.23,2.29-7.45,2.29Zm.45-14.87a7.89,7.89,0,0,0-4.32,1,4.47,4.47,0,0,0-2,3.17h16.5a4.54,4.54,0,0,0-1.95-3.17,8,8,0,0,0-4.33-1Zm.08,11.62h3.87a7.92,7.92,0,0,0,4.34-1,4.58,4.58,0,0,0,1.94-3.2H112.2a4.5,4.5,0,0,0,2,3.2A8.08,8.08,0,0,0,118.55,124.59Z"/><path class="cls-3" d="M135.4,127.72V109.84h3.35l8.27,5.8h.13l8.27-5.8h3.35v17.88h-4V114.84l-5.67,3.8v9.08h-4v-9.08l-5.7-3.8v12.88Z"/><path class="cls-3" d="M162.27,127.72V109.84h19.6v3.25h-15.6v4h14.15v3.25H166.27v4.18h15.6v3.25Z"/><path class="cls-3" d="M202.57,127.84q-4.95,0-7.57-2.29t-2.63-6.78q0-4.47,2.63-6.78t7.57-2.27l9,0V113h-8.72a7.23,7.23,0,0,0-4.83,1.37c-1.05.92-1.57,2.39-1.57,4.43a5.64,5.64,0,0,0,1.57,4.44,7.18,7.18,0,0,0,4.83,1.38h9v3.25Z"/><path class="cls-3" d="M222.85,127.84c-3.19,0-5.65-.76-7.4-2.29s-2.63-3.78-2.63-6.78.88-5.24,2.63-6.76,4.27-2.29,7.57-2.29h4.5q4.95,0,7.58,2.29c1.75,1.52,2.62,3.78,2.62,6.76s-.87,5.26-2.62,6.78-4.24,2.29-7.45,2.29ZM223.3,113a7.93,7.93,0,0,0-4.33,1,4.54,4.54,0,0,0-1.95,3.17h16.5a4.54,4.54,0,0,0-2-3.17,7.89,7.89,0,0,0-4.32-1Zm.07,11.62h3.88a7.88,7.88,0,0,0,4.33-1,4.55,4.55,0,0,0,1.94-3.2H217a4.56,4.56,0,0,0,1.95,3.2A8.08,8.08,0,0,0,223.37,124.59Z"/><path class="cls-3" d="M240.22,127.72V109.84h3.35l8.28,5.8H252l8.28-5.8h3.35v17.88h-4V114.84l-5.68,3.8v9.08h-4v-9.08l-5.7-3.8v12.88Z"/><path class="cls-3" d="M267.1,127.72V109.84h3.35l8.27,5.8h.13l8.27-5.8h3.35v17.88h-4V114.84l-5.67,3.8v9.08h-4v-9.08l-5.7-3.8v12.88Z"/><path class="cls-3" d="M301.2,127.84a10.54,10.54,0,0,1-4.3-.71,4.36,4.36,0,0,1-2.25-2.16,8.65,8.65,0,0,1-.68-3.65V109.84h4v11.48a3.14,3.14,0,0,0,.89,2.59,5.08,5.08,0,0,0,3,.68h4.83a5.1,5.1,0,0,0,3-.68,3.14,3.14,0,0,0,.89-2.59V109.84h4v11.48a8.65,8.65,0,0,1-.68,3.65,4.36,4.36,0,0,1-2.25,2.16,10.54,10.54,0,0,1-4.3.71Z"/><path class="cls-3" d="M318.1,127.72V109.84h4l12.65,12.85V109.84h4v17.88h-4.05L322.1,114.84v12.88Z"/><path class="cls-3" d="M342.3,127.72V109.84h4v17.88Z"/><path class="cls-3" d="M349.17,118.89v-9h22v9h-4.05v-5.8h-5.45v14.63h-4V113.09h-4.45v5.8Z"/><path class="cls-3" d="M381.77,127.72v-6.38l-9.47-11.5h4.95l6.52,8.1,6.5-8.1h5l-9.42,11.48v6.4Z"/></svg>