<svg id="Layer_1" data-name="Layer 1" xmlns="http://www.w3.org/2000/svg" viewBox="0 0 200 200"><defs><style>.cls-1{fill:#fff;}</style></defs><path class="cls-1" d="M102.57,80.74a.74.74,0,0,0-.22.1L85.91,93.05H81.28a3.62,3.62,0,0,0-3.09,1.67A9.4,9.4,0,0,0,77,100a9.4,9.4,0,0,0,1.19,5.28A3.62,3.62,0,0,0,81.28,107h4.63l16.44,12.21h0a.58.58,0,0,0,.32.1h4.81a.54.54,0,0,0,.53-.54V81.28a.53.53,0,0,0-.53-.53h-4.81a0,0,0,0,0,0,0,0,0,0,0,0-.05,0Zm.28,1.07h4.09v36.37h-4.09L86.41,106a.6.6,0,0,0-.32-.1H81.28a2.46,2.46,0,0,1-2.21-1.18,8.63,8.63,0,0,1-1-4.7,8.63,8.63,0,0,1,1-4.7,2.44,2.44,0,0,1,2.21-1.18h4.81a.6.6,0,0,0,.32-.1l16.44-12.21Zm9.91,12.82h0a.52.52,0,0,0-.45.36.53.53,0,0,0,.13.56l4.43,4.45-4.43,4.43h0a.54.54,0,0,0,.77.75l4.43-4.43,4.43,4.43h0a.54.54,0,1,0,.77-.75L118.41,100l4.43-4.45h0a.53.53,0,0,0-.4-.92.56.56,0,0,0-.37.17l-4.43,4.43-4.43-4.43h0a.57.57,0,0,0-.45-.17Z"/></svg>