<svg id="Layer_1" data-name="Layer 1" xmlns="http://www.w3.org/2000/svg" viewBox="0 0 200 200"><defs><style>.cls-1{fill:#fff;}</style></defs><path class="cls-1" d="M102.57,80.74a.74.74,0,0,0-.22.1L85.91,93.05H81.28a3.62,3.62,0,0,0-3.09,1.67A9.4,9.4,0,0,0,77,100a9.4,9.4,0,0,0,1.19,5.28A3.62,3.62,0,0,0,81.28,107h4.63l16.44,12.21h0a.58.58,0,0,0,.32.1h4.81a.54.54,0,0,0,.53-.54V81.28a.53.53,0,0,0-.53-.53h-4.81a0,0,0,0,0,0,0,0,0,0,0,0-.05,0Zm.28,1.07h4.09v36.37h-4.09L86.41,106a.6.6,0,0,0-.32-.1H81.28a2.46,2.46,0,0,1-2.21-1.18,8.63,8.63,0,0,1-1-4.7,8.63,8.63,0,0,1,1-4.7,2.44,2.44,0,0,1,2.21-1.18h4.81a.6.6,0,0,0,.32-.1l16.44-12.21Z"/><path class="cls-1" d="M113,106.29a.72.72,0,0,1-.7-.7V96.27a.7.7,0,0,1,1.39,0v9.32a.71.71,0,0,1-.69.7Z"/><path class="cls-1" d="M117.64,110a.72.72,0,0,1-.7-.7V92.55a.7.7,0,0,1,1.4,0v16.76A.72.72,0,0,1,117.64,110Z"/><path class="cls-1" d="M122.3,111.88a.72.72,0,0,1-.7-.7V88.82a.7.7,0,1,1,1.4,0v22.36A.72.72,0,0,1,122.3,111.88Z"/></svg>